mtllib environment.mtl
o gravity_core
v 0.00000 0.00000 7.20000
v 2.75532 0.00000 6.65193
v 5.09117 0.00000 5.09117
v 6.65193 0.00000 2.75532
v 7.20000 0.00000 0.00000
v 6.65193 0.00000 -2.75532
v 5.09117 0.00000 -5.09117
v 2.75532 0.00000 -6.65193
v 0.00000 0.00000 -7.20000
v -2.75532 0.00000 -6.65193
v -5.09117 0.00000 -5.09117
v -6.65193 0.00000 -2.75532
v -7.20000 0.00000 -0.00000
v -6.65193 0.00000 2.75532
v -5.09117 0.00000 5.09117
v -2.75532 0.00000 6.65193
v 0.00000 0.24000 7.20000
v 2.75532 0.24000 6.65193
v 5.09117 0.24000 5.09117
v 6.65193 0.24000 2.75532
v 7.20000 0.24000 0.00000
v 6.65193 0.24000 -2.75532
v 5.09117 0.24000 -5.09117
v 2.75532 0.24000 -6.65193
v 0.00000 0.24000 -7.20000
v -2.75532 0.24000 -6.65193
v -5.09117 0.24000 -5.09117
v -6.65193 0.24000 -2.75532
v -7.20000 0.24000 -0.00000
v -6.65193 0.24000 2.75532
v -5.09117 0.24000 5.09117
v -2.75532 0.24000 6.65193
v 0.00000 0.19000 5.70000
v 2.18130 0.19000 5.26611
v 4.03051 0.19000 4.03051
v 5.26611 0.19000 2.18130
v 5.70000 0.19000 0.00000
v 5.26611 0.19000 -2.18130
v 4.03051 0.19000 -4.03051
v 2.18130 0.19000 -5.26611
v 0.00000 0.19000 -5.70000
v -2.18130 0.19000 -5.26611
v -4.03051 0.19000 -4.03051
v -5.26611 0.19000 -2.18130
v -5.70000 0.19000 -0.00000
v -5.26611 0.19000 2.18130
v -4.03051 0.19000 4.03051
v -2.18130 0.19000 5.26611
v 0.00000 0.35000 5.70000
v 2.18130 0.35000 5.26611
v 4.03051 0.35000 4.03051
v 5.26611 0.35000 2.18130
v 5.70000 0.35000 0.00000
v 5.26611 0.35000 -2.18130
v 4.03051 0.35000 -4.03051
v 2.18130 0.35000 -5.26611
v 0.00000 0.35000 -5.70000
v -2.18130 0.35000 -5.26611
v -4.03051 0.35000 -4.03051
v -5.26611 0.35000 -2.18130
v -5.70000 0.35000 -0.00000
v -5.26611 0.35000 2.18130
v -4.03051 0.35000 4.03051
v -2.18130 0.35000 5.26611
v 0.00000 0.33000 3.90000
v 1.69215 0.33000 3.51378
v 3.04914 0.33000 2.43161
v 3.80222 0.33000 0.86783
v 3.80222 0.33000 -0.86783
v 3.04914 0.33000 -2.43161
v 1.69215 0.33000 -3.51378
v 0.00000 0.33000 -3.90000
v -1.69215 0.33000 -3.51378
v -3.04914 0.33000 -2.43161
v -3.80222 0.33000 -0.86783
v -3.80222 0.33000 0.86783
v -3.04914 0.33000 2.43161
v -1.69215 0.33000 3.51378
v 0.00000 0.51000 3.90000
v 1.69215 0.51000 3.51378
v 3.04914 0.51000 2.43161
v 3.80222 0.51000 0.86783
v 3.80222 0.51000 -0.86783
v 3.04914 0.51000 -2.43161
v 1.69215 0.51000 -3.51378
v 0.00000 0.51000 -3.90000
v -1.69215 0.51000 -3.51378
v -3.04914 0.51000 -2.43161
v -3.80222 0.51000 -0.86783
v -3.80222 0.51000 0.86783
v -3.04914 0.51000 2.43161
v -1.69215 0.51000 3.51378
v 0.00000 0.17000 1.50000
v 0.88168 0.17000 1.21353
v 1.42658 0.17000 0.46353
v 1.42658 0.17000 -0.46353
v 0.88168 0.17000 -1.21353
v 0.00000 0.17000 -1.50000
v -0.88168 0.17000 -1.21353
v -1.42658 0.17000 -0.46353
v -1.42658 0.17000 0.46353
v -0.88168 0.17000 1.21353
v 0.00000 1.27000 0.80000
v 0.47023 1.27000 0.64721
v 0.76085 1.27000 0.24721
v 0.76085 1.27000 -0.24721
v 0.47023 1.27000 -0.64721
v 0.00000 1.27000 -0.80000
v -0.47023 1.27000 -0.64721
v -0.76085 1.27000 -0.24721
v -0.76085 1.27000 0.24721
v -0.47023 1.27000 0.64721
v 0.00000 1.20000 5.90000
v 0.00000 0.10000 5.90000
v 0.00000 0.65000 6.25000
v 0.30311 0.65000 6.07500
v 0.30311 0.65000 5.72500
v 0.00000 0.65000 5.55000
v -0.30311 0.65000 5.72500
v -0.30311 0.65000 6.07500
v 4.17193 1.20000 4.17193
v 4.17193 0.10000 4.17193
v 4.17193 0.65000 4.52193
v 4.47504 0.65000 4.34693
v 4.47504 0.65000 3.99693
v 4.17193 0.65000 3.82193
v 3.86882 0.65000 3.99693
v 3.86882 0.65000 4.34693
v 5.90000 1.20000 0.00000
v 5.90000 0.10000 0.00000
v 5.90000 0.65000 0.35000
v 6.20311 0.65000 0.17500
v 6.20311 0.65000 -0.17500
v 5.90000 0.65000 -0.35000
v 5.59689 0.65000 -0.17500
v 5.59689 0.65000 0.17500
v 4.17193 1.20000 -4.17193
v 4.17193 0.10000 -4.17193
v 4.17193 0.65000 -3.82193
v 4.47504 0.65000 -3.99693
v 4.47504 0.65000 -4.34693
v 4.17193 0.65000 -4.52193
v 3.86882 0.65000 -4.34693
v 3.86882 0.65000 -3.99693
v 0.00000 1.20000 -5.90000
v 0.00000 0.10000 -5.90000
v 0.00000 0.65000 -5.55000
v 0.30311 0.65000 -5.72500
v 0.30311 0.65000 -6.07500
v 0.00000 0.65000 -6.25000
v -0.30311 0.65000 -6.07500
v -0.30311 0.65000 -5.72500
v -4.17193 1.20000 -4.17193
v -4.17193 0.10000 -4.17193
v -4.17193 0.65000 -3.82193
v -3.86882 0.65000 -3.99693
v -3.86882 0.65000 -4.34693
v -4.17193 0.65000 -4.52193
v -4.47504 0.65000 -4.34693
v -4.47504 0.65000 -3.99693
v -5.90000 1.20000 -0.00000
v -5.90000 0.10000 -0.00000
v -5.90000 0.65000 0.35000
v -5.59689 0.65000 0.17500
v -5.59689 0.65000 -0.17500
v -5.90000 0.65000 -0.35000
v -6.20311 0.65000 -0.17500
v -6.20311 0.65000 0.17500
v -4.17193 1.20000 4.17193
v -4.17193 0.10000 4.17193
v -4.17193 0.65000 4.52193
v -3.86882 0.65000 4.34693
v -3.86882 0.65000 3.99693
v -4.17193 0.65000 3.82193
v -4.47504 0.65000 3.99693
v -4.47504 0.65000 4.34693
usemtl gravity_dark
f 16 15 14 13 12 11 10 9 8 7 6 5 4 3 2 1
f 17 18 19 20 21 22 23 24 25 26 27 28 29 30 31 32
f 1 2 18 17
f 2 3 19 18
f 3 4 20 19
f 4 5 21 20
f 5 6 22 21
f 6 7 23 22
f 7 8 24 23
f 8 9 25 24
f 9 10 26 25
f 10 11 27 26
f 11 12 28 27
f 12 13 29 28
f 13 14 30 29
f 14 15 31 30
f 15 16 32 31
f 16 1 17 32
usemtl gravity
f 48 47 46 45 44 43 42 41 40 39 38 37 36 35 34 33
f 49 50 51 52 53 54 55 56 57 58 59 60 61 62 63 64
f 33 34 50 49
f 34 35 51 50
f 35 36 52 51
f 36 37 53 52
f 37 38 54 53
f 38 39 55 54
f 39 40 56 55
f 40 41 57 56
f 41 42 58 57
f 42 43 59 58
f 43 44 60 59
f 44 45 61 60
f 45 46 62 61
f 46 47 63 62
f 47 48 64 63
f 48 33 49 64
usemtl gravity_dark
f 78 77 76 75 74 73 72 71 70 69 68 67 66 65
f 79 80 81 82 83 84 85 86 87 88 89 90 91 92
f 65 66 80 79
f 66 67 81 80
f 67 68 82 81
f 68 69 83 82
f 69 70 84 83
f 70 71 85 84
f 71 72 86 85
f 72 73 87 86
f 73 74 88 87
f 74 75 89 88
f 75 76 90 89
f 76 77 91 90
f 77 78 92 91
f 78 65 79 92
usemtl gravity
f 102 101 100 99 98 97 96 95 94 93
f 103 104 105 106 107 108 109 110 111 112
f 93 94 104 103
f 94 95 105 104
f 95 96 106 105
f 96 97 107 106
f 97 98 108 107
f 98 99 109 108
f 99 100 110 109
f 100 101 111 110
f 101 102 112 111
f 102 93 103 112
usemtl gravity
f 113 115 116
f 114 116 115
f 113 116 117
f 114 117 116
f 113 117 118
f 114 118 117
f 113 118 119
f 114 119 118
f 113 119 120
f 114 120 119
f 113 120 115
f 114 115 120
usemtl gravity
f 121 123 124
f 122 124 123
f 121 124 125
f 122 125 124
f 121 125 126
f 122 126 125
f 121 126 127
f 122 127 126
f 121 127 128
f 122 128 127
f 121 128 123
f 122 123 128
usemtl gravity
f 129 131 132
f 130 132 131
f 129 132 133
f 130 133 132
f 129 133 134
f 130 134 133
f 129 134 135
f 130 135 134
f 129 135 136
f 130 136 135
f 129 136 131
f 130 131 136
usemtl gravity
f 137 139 140
f 138 140 139
f 137 140 141
f 138 141 140
f 137 141 142
f 138 142 141
f 137 142 143
f 138 143 142
f 137 143 144
f 138 144 143
f 137 144 139
f 138 139 144
usemtl gravity
f 145 147 148
f 146 148 147
f 145 148 149
f 146 149 148
f 145 149 150
f 146 150 149
f 145 150 151
f 146 151 150
f 145 151 152
f 146 152 151
f 145 152 147
f 146 147 152
usemtl gravity
f 153 155 156
f 154 156 155
f 153 156 157
f 154 157 156
f 153 157 158
f 154 158 157
f 153 158 159
f 154 159 158
f 153 159 160
f 154 160 159
f 153 160 155
f 154 155 160
usemtl gravity
f 161 163 164
f 162 164 163
f 161 164 165
f 162 165 164
f 161 165 166
f 162 166 165
f 161 166 167
f 162 167 166
f 161 167 168
f 162 168 167
f 161 168 163
f 162 163 168
usemtl gravity
f 169 171 172
f 170 172 171
f 169 172 173
f 170 173 172
f 169 173 174
f 170 174 173
f 169 174 175
f 170 175 174
f 169 175 176
f 170 176 175
f 169 176 171
f 170 171 176
