mtllib environment.mtl
o jungle_tree
v 0.14304 0.00000 0.70565
v 0.64088 0.00000 0.32813
v 0.65613 0.00000 -0.29648
v 0.17729 0.00000 -0.69783
v -0.43505 0.00000 -0.57370
v -0.71979 0.00000 -0.01757
v -0.46251 0.00000 0.55180
v 0.09933 5.00000 0.49003
v 0.44506 5.00000 0.22787
v 0.45564 5.00000 -0.20589
v 0.12312 5.00000 -0.48460
v -0.30211 5.00000 -0.39841
v -0.49985 5.00000 -0.01220
v -0.32119 5.00000 0.38319
v 0.47943 4.10000 0.87758
v 0.99972 4.10000 0.02360
v 0.52030 4.10000 -0.85399
v -0.47943 4.10000 -0.87758
v -0.99972 4.10000 -0.02360
v -0.52030 4.10000 0.85399
v 0.26368 6.20000 0.48267
v 0.54985 6.20000 0.01298
v 0.28616 6.20000 -0.46969
v -0.26368 6.20000 -0.48267
v -0.54985 6.20000 -0.01298
v -0.28616 6.20000 0.46969
v 0.00000 8.80000 0.00000
v 0.00000 4.40000 0.00000
v 0.00000 6.60000 3.00000
v 2.33345 6.60000 2.12132
v 3.30000 6.60000 0.00000
v 2.33345 6.60000 -2.12132
v 0.00000 6.60000 -3.00000
v -2.33345 6.60000 -2.12132
v -3.30000 6.60000 -0.00000
v -2.33345 6.60000 2.12132
v 2.20000 7.80000 0.70000
v 2.20000 4.40000 0.70000
v 2.20000 6.10000 2.80000
v 3.82635 6.10000 2.18492
v 4.50000 6.10000 0.70000
v 3.82635 6.10000 -0.78492
v 2.20000 6.10000 -1.40000
v 0.57365 6.10000 -0.78492
v -0.10000 6.10000 0.70000
v 0.57365 6.10000 2.18492
v -2.00000 8.00000 -0.50000
v -2.00000 4.40000 -0.50000
v -2.00000 6.20000 1.70000
v -0.23223 6.20000 1.05563
v 0.50000 6.20000 -0.50000
v -0.23223 6.20000 -2.05563
v -2.00000 6.20000 -2.70000
v -3.76777 6.20000 -2.05563
v -4.50000 6.20000 -0.50000
v -3.76777 6.20000 1.05563
v 0.30000 9.50000 -0.20000
v 0.30000 6.50000 -0.20000
v 0.30000 8.00000 1.80000
v 1.85563 8.00000 1.21421
v 2.50000 8.00000 -0.20000
v 1.85563 8.00000 -1.61421
v 0.30000 8.00000 -2.20000
v -1.25563 8.00000 -1.61421
v -1.90000 8.00000 -0.20000
v -1.25563 8.00000 1.21421
usemtl wood
f 7 6 5 4 3 2 1
f 8 9 10 11 12 13 14
f 1 2 9 8
f 2 3 10 9
f 3 4 11 10
f 4 5 12 11
f 5 6 13 12
f 6 7 14 13
f 7 1 8 14
usemtl wood
f 20 19 18 17 16 15
f 21 22 23 24 25 26
f 15 16 22 21
f 16 17 23 22
f 17 18 24 23
f 18 19 25 24
f 19 20 26 25
f 20 15 21 26
usemtl leaf_dark
f 27 29 30
f 28 30 29
f 27 30 31
f 28 31 30
f 27 31 32
f 28 32 31
f 27 32 33
f 28 33 32
f 27 33 34
f 28 34 33
f 27 34 35
f 28 35 34
f 27 35 36
f 28 36 35
f 27 36 29
f 28 29 36
usemtl leaf
f 37 39 40
f 38 40 39
f 37 40 41
f 38 41 40
f 37 41 42
f 38 42 41
f 37 42 43
f 38 43 42
f 37 43 44
f 38 44 43
f 37 44 45
f 38 45 44
f 37 45 46
f 38 46 45
f 37 46 39
f 38 39 46
usemtl leaf
f 47 49 50
f 48 50 49
f 47 50 51
f 48 51 50
f 47 51 52
f 48 52 51
f 47 52 53
f 48 53 52
f 47 53 54
f 48 54 53
f 47 54 55
f 48 55 54
f 47 55 56
f 48 56 55
f 47 56 49
f 48 49 56
usemtl leaf_light
f 57 59 60
f 58 60 59
f 57 60 61
f 58 61 60
f 57 61 62
f 58 62 61
f 57 62 63
f 58 63 62
f 57 63 64
f 58 64 63
f 57 64 65
f 58 65 64
f 57 65 66
f 58 66 65
f 57 66 59
f 58 59 66
