mtllib environment.mtl
o laser_reactor
v 0.00000 0.00000 2.20000
v 1.29313 0.00000 1.77984
v 2.09232 0.00000 0.67984
v 2.09232 0.00000 -0.67984
v 1.29313 0.00000 -1.77984
v 0.00000 0.00000 -2.20000
v -1.29313 0.00000 -1.77984
v -2.09232 0.00000 -0.67984
v -2.09232 0.00000 0.67984
v -1.29313 0.00000 1.77984
v 0.00000 0.90000 1.75000
v 1.02862 0.90000 1.41578
v 1.66435 0.90000 0.54078
v 1.66435 0.90000 -0.54078
v 1.02862 0.90000 -1.41578
v 0.00000 0.90000 -1.75000
v -1.02862 0.90000 -1.41578
v -1.66435 0.90000 -0.54078
v -1.66435 0.90000 0.54078
v -1.02862 0.90000 1.41578
v 0.00000 0.75000 1.55000
v 1.09602 0.75000 1.09602
v 1.55000 0.75000 0.00000
v 1.09602 0.75000 -1.09602
v 0.00000 0.75000 -1.55000
v -1.09602 0.75000 -1.09602
v -1.55000 0.75000 -0.00000
v -1.09602 0.75000 1.09602
v 0.00000 1.55000 1.15000
v 0.81317 1.55000 0.81317
v 1.15000 1.55000 0.00000
v 0.81317 1.55000 -0.81317
v 0.00000 1.55000 -1.15000
v -0.81317 1.55000 -0.81317
v -1.15000 1.55000 -0.00000
v -0.81317 1.55000 0.81317
v 0.00000 2.65000 0.00000
v 0.00000 1.15000 0.00000
v 0.00000 1.90000 0.62000
v 0.43841 1.90000 0.43841
v 0.62000 1.90000 0.00000
v 0.43841 1.90000 -0.43841
v 0.00000 1.90000 -0.62000
v -0.43841 1.90000 -0.43841
v -0.62000 1.90000 -0.00000
v -0.43841 1.90000 0.43841
v -0.22500 0.37500 1.05000
v 0.22500 0.37500 1.05000
v 0.22500 1.02500 1.05000
v -0.22500 1.02500 1.05000
v -0.22500 0.37500 2.15000
v 0.22500 0.37500 2.15000
v 0.22500 1.02500 2.15000
v -0.22500 1.02500 2.15000
v 1.37500 0.37500 -0.55000
v 1.82500 0.37500 -0.55000
v 1.82500 1.02500 -0.55000
v 1.37500 1.02500 -0.55000
v 1.37500 0.37500 0.55000
v 1.82500 0.37500 0.55000
v 1.82500 1.02500 0.55000
v 1.37500 1.02500 0.55000
v -0.22500 0.37500 -2.15000
v 0.22500 0.37500 -2.15000
v 0.22500 1.02500 -2.15000
v -0.22500 1.02500 -2.15000
v -0.22500 0.37500 -1.05000
v 0.22500 0.37500 -1.05000
v 0.22500 1.02500 -1.05000
v -0.22500 1.02500 -1.05000
v -1.82500 0.37500 -0.55000
v -1.37500 0.37500 -0.55000
v -1.37500 1.02500 -0.55000
v -1.82500 1.02500 -0.55000
v -1.82500 0.37500 0.55000
v -1.37500 0.37500 0.55000
v -1.37500 1.02500 0.55000
v -1.82500 1.02500 0.55000
usemtl metal_dark
f 10 9 8 7 6 5 4 3 2 1
f 11 12 13 14 15 16 17 18 19 20
f 1 2 12 11
f 2 3 13 12
f 3 4 14 13
f 4 5 15 14
f 5 6 16 15
f 6 7 17 16
f 7 8 18 17
f 8 9 19 18
f 9 10 20 19
f 10 1 11 20
usemtl metal
f 28 27 26 25 24 23 22 21
f 29 30 31 32 33 34 35 36
f 21 22 30 29
f 22 23 31 30
f 23 24 32 31
f 24 25 33 32
f 25 26 34 33
f 26 27 35 34
f 27 28 36 35
f 28 21 29 36
usemtl laser
f 37 39 40
f 38 40 39
f 37 40 41
f 38 41 40
f 37 41 42
f 38 42 41
f 37 42 43
f 38 43 42
f 37 43 44
f 38 44 43
f 37 44 45
f 38 45 44
f 37 45 46
f 38 46 45
f 37 46 39
f 38 39 46
usemtl laser
f 47 48 49 50
f 51 54 53 52
f 47 51 52 48
f 48 52 53 49
f 49 53 54 50
f 51 47 50 54
usemtl laser
f 55 56 57 58
f 59 62 61 60
f 55 59 60 56
f 56 60 61 57
f 57 61 62 58
f 59 55 58 62
usemtl laser
f 63 64 65 66
f 67 70 69 68
f 63 67 68 64
f 64 68 69 65
f 65 69 70 66
f 67 63 66 70
usemtl laser
f 71 72 73 74
f 75 78 77 76
f 71 75 76 72
f 72 76 77 73
f 73 77 78 74
f 75 71 74 78
