mtllib environment.mtl
o rock_cover
v 0.55603 0.00000 3.65798
v 3.20660 0.00000 1.84599
v 3.44254 0.00000 -1.35606
v 1.08618 0.00000 -3.53698
v -2.08810 0.00000 -3.05448
v -3.69000 0.00000 -0.27189
v -2.51325 0.00000 2.71543
v 0.35491 3.60000 2.33485
v 2.04674 3.60000 1.17828
v 2.19734 3.60000 -0.86556
v 0.69329 3.60000 -2.25762
v -1.33281 3.60000 -1.94964
v -2.35529 3.60000 -0.17355
v -1.60418 3.60000 1.73323
v 3.18093 0.00000 3.69344
v 5.24985 0.00000 2.29003
v 5.06892 0.00000 -0.20341
v 2.81907 0.00000 -1.29344
v 0.75015 0.00000 0.10997
v 0.93108 0.00000 2.60341
v 3.12614 4.80000 2.93835
v 4.56853 4.80000 1.95993
v 4.44239 4.80000 0.22158
v 2.87386 4.80000 -0.53835
v 1.43147 4.80000 0.44007
v 1.55761 4.80000 2.17842
v -2.01330 0.00000 1.05453
v -0.70320 0.00000 -0.33409
v -0.97204 0.00000 -2.22416
v -2.61737 0.00000 -3.19241
v -4.40022 0.00000 -2.50973
v -4.97808 0.00000 -0.69020
v -3.91579 0.00000 0.89605
v -2.26783 3.40000 0.38981
v -1.38160 3.40000 -0.54954
v -1.56346 3.40000 -1.82809
v -2.67646 3.40000 -2.48307
v -3.88249 3.40000 -2.02127
v -4.27338 3.40000 -0.79043
v -3.55479 3.40000 0.28260
v 1.00000 5.45000 0.50000
v 1.00000 3.85000 0.50000
v 1.00000 4.65000 1.15000
v 1.56292 4.65000 0.82500
v 1.56292 4.65000 0.17500
v 1.00000 4.65000 -0.15000
v 0.43708 4.65000 0.17500
v 0.43708 4.65000 0.82500
usemtl rock
f 7 6 5 4 3 2 1
f 8 9 10 11 12 13 14
f 1 2 9 8
f 2 3 10 9
f 3 4 11 10
f 4 5 12 11
f 5 6 13 12
f 6 7 14 13
f 7 1 8 14
usemtl rock
f 20 19 18 17 16 15
f 21 22 23 24 25 26
f 15 16 22 21
f 16 17 23 22
f 17 18 24 23
f 18 19 25 24
f 19 20 26 25
f 20 15 21 26
usemtl rock
f 33 32 31 30 29 28 27
f 34 35 36 37 38 39 40
f 27 28 35 34
f 28 29 36 35
f 29 30 37 36
f 30 31 38 37
f 31 32 39 38
f 32 33 40 39
f 33 27 34 40
usemtl crystal
f 41 43 44
f 42 44 43
f 41 44 45
f 42 45 44
f 41 45 46
f 42 46 45
f 41 46 47
f 42 47 46
f 41 47 48
f 42 48 47
f 41 48 43
f 42 43 48
