mtllib environment.mtl
o ruin_wall
v -5.40000 0.00000 -1.25000
v -3.40000 0.00000 -1.25000
v -3.40000 5.20000 -1.25000
v -5.40000 5.20000 -1.25000
v -5.40000 0.00000 1.25000
v -3.40000 0.00000 1.25000
v -3.40000 5.20000 1.25000
v -5.40000 5.20000 1.25000
v 3.40000 0.00000 -1.25000
v 5.40000 0.00000 -1.25000
v 5.40000 3.80000 -1.25000
v 3.40000 3.80000 -1.25000
v 3.40000 0.00000 1.25000
v 5.40000 0.00000 1.25000
v 5.40000 3.80000 1.25000
v 3.40000 3.80000 1.25000
v -3.40000 0.00000 -1.05000
v 0.00000 0.00000 -1.05000
v 0.00000 2.90000 -1.05000
v -3.40000 2.90000 -1.05000
v -3.40000 0.00000 1.05000
v 0.00000 0.00000 1.05000
v 0.00000 2.90000 1.05000
v -3.40000 2.90000 1.05000
v 0.00000 0.00000 -1.05000
v 3.20000 0.00000 -1.05000
v 3.20000 1.80000 -1.05000
v 0.00000 1.80000 -1.05000
v 0.00000 0.00000 1.05000
v 3.20000 0.00000 1.05000
v 3.20000 1.80000 1.05000
v 0.00000 1.80000 1.05000
v -3.50000 4.42500 -1.35000
v 1.50000 4.42500 -1.35000
v 1.50000 5.07500 -1.35000
v -3.50000 5.07500 -1.35000
v -3.50000 4.42500 1.35000
v 1.50000 4.42500 1.35000
v 1.50000 5.07500 1.35000
v -3.50000 5.07500 1.35000
v -4.40000 5.05000 1.45000
v -3.14426 5.05000 0.72500
v -3.14426 5.05000 -0.72500
v -4.40000 5.05000 -1.45000
v -5.65574 5.05000 -0.72500
v -5.65574 5.05000 0.72500
v -4.40000 6.05000 0.80000
v -3.70718 6.05000 0.40000
v -3.70718 6.05000 -0.40000
v -4.40000 6.05000 -0.80000
v -5.09282 6.05000 -0.40000
v -5.09282 6.05000 0.40000
v 2.62500 0.45000 -1.32500
v 2.97500 0.45000 -1.32500
v 2.97500 4.05000 -1.32500
v 2.62500 4.05000 -1.32500
v 2.62500 0.45000 -1.07500
v 2.97500 0.45000 -1.07500
v 2.97500 4.05000 -1.07500
v 2.62500 4.05000 -1.07500
usemtl temple
f 1 2 3 4
f 5 8 7 6
f 1 5 6 2
f 2 6 7 3
f 3 7 8 4
f 5 1 4 8
usemtl temple
f 9 10 11 12
f 13 16 15 14
f 9 13 14 10
f 10 14 15 11
f 11 15 16 12
f 13 9 12 16
usemtl stone
f 17 18 19 20
f 21 24 23 22
f 17 21 22 18
f 18 22 23 19
f 19 23 24 20
f 21 17 20 24
usemtl stone
f 25 26 27 28
f 29 32 31 30
f 25 29 30 26
f 26 30 31 27
f 27 31 32 28
f 29 25 28 32
usemtl temple_light
f 33 34 35 36
f 37 40 39 38
f 33 37 38 34
f 34 38 39 35
f 35 39 40 36
f 37 33 36 40
usemtl temple_light
f 46 45 44 43 42 41
f 47 48 49 50 51 52
f 41 42 48 47
f 42 43 49 48
f 43 44 50 49
f 44 45 51 50
f 45 46 52 51
f 46 41 47 52
usemtl vine
f 53 54 55 56
f 57 60 59 58
f 53 57 58 54
f 54 58 59 55
f 55 59 60 56
f 57 53 56 60
