mtllib environment.mtl
o spike_trap
v 0.00000 0.00000 8.00000
v 3.06147 0.00000 7.39104
v 5.65685 0.00000 5.65685
v 7.39104 0.00000 3.06147
v 8.00000 0.00000 0.00000
v 7.39104 0.00000 -3.06147
v 5.65685 0.00000 -5.65685
v 3.06147 0.00000 -7.39104
v 0.00000 0.00000 -8.00000
v -3.06147 0.00000 -7.39104
v -5.65685 0.00000 -5.65685
v -7.39104 0.00000 -3.06147
v -8.00000 0.00000 -0.00000
v -7.39104 0.00000 3.06147
v -5.65685 0.00000 5.65685
v -3.06147 0.00000 7.39104
v 0.00000 0.16000 8.00000
v 3.06147 0.16000 7.39104
v 5.65685 0.16000 5.65685
v 7.39104 0.16000 3.06147
v 8.00000 0.16000 0.00000
v 7.39104 0.16000 -3.06147
v 5.65685 0.16000 -5.65685
v 3.06147 0.16000 -7.39104
v 0.00000 0.16000 -8.00000
v -3.06147 0.16000 -7.39104
v -5.65685 0.16000 -5.65685
v -7.39104 0.16000 -3.06147
v -8.00000 0.16000 -0.00000
v -7.39104 0.16000 3.06147
v -5.65685 0.16000 5.65685
v -3.06147 0.16000 7.39104
v 0.00000 -0.00500 2.42000
v 0.36373 -0.00500 2.21000
v 0.36373 -0.00500 1.79000
v 0.00000 -0.00500 1.58000
v -0.36373 -0.00500 1.79000
v -0.36373 -0.00500 2.21000
v 0.00000 1.44500 2.03500
v 0.03031 1.44500 2.01750
v 0.03031 1.44500 1.98250
v 0.00000 1.44500 1.96500
v -0.03031 1.44500 1.98250
v -0.03031 1.44500 2.01750
v 2.09578 -0.00500 1.21000
v 2.09578 -0.00500 0.79000
v 1.73205 -0.00500 0.58000
v 1.36832 -0.00500 0.79000
v 1.36832 -0.00500 1.21000
v 1.73205 -0.00500 1.42000
v 1.76236 1.44500 1.01750
v 1.76236 1.44500 0.98250
v 1.73205 1.44500 0.96500
v 1.70174 1.44500 0.98250
v 1.70174 1.44500 1.01750
v 1.73205 1.44500 1.03500
v 2.09578 -0.00500 -1.21000
v 1.73205 -0.00500 -1.42000
v 1.36832 -0.00500 -1.21000
v 1.36832 -0.00500 -0.79000
v 1.73205 -0.00500 -0.58000
v 2.09578 -0.00500 -0.79000
v 1.76236 1.44500 -1.01750
v 1.73205 1.44500 -1.03500
v 1.70174 1.44500 -1.01750
v 1.70174 1.44500 -0.98250
v 1.73205 1.44500 -0.96500
v 1.76236 1.44500 -0.98250
v 0.00000 -0.00500 -2.42000
v -0.36373 -0.00500 -2.21000
v -0.36373 -0.00500 -1.79000
v 0.00000 -0.00500 -1.58000
v 0.36373 -0.00500 -1.79000
v 0.36373 -0.00500 -2.21000
v 0.00000 1.44500 -2.03500
v -0.03031 1.44500 -2.01750
v -0.03031 1.44500 -1.98250
v 0.00000 1.44500 -1.96500
v 0.03031 1.44500 -1.98250
v 0.03031 1.44500 -2.01750
v -2.09578 -0.00500 -1.21000
v -2.09578 -0.00500 -0.79000
v -1.73205 -0.00500 -0.58000
v -1.36832 -0.00500 -0.79000
v -1.36832 -0.00500 -1.21000
v -1.73205 -0.00500 -1.42000
v -1.76236 1.44500 -1.01750
v -1.76236 1.44500 -0.98250
v -1.73205 1.44500 -0.96500
v -1.70174 1.44500 -0.98250
v -1.70174 1.44500 -1.01750
v -1.73205 1.44500 -1.03500
v -2.09578 -0.00500 1.21000
v -1.73205 -0.00500 1.42000
v -1.36832 -0.00500 1.21000
v -1.36832 -0.00500 0.79000
v -1.73205 -0.00500 0.58000
v -2.09578 -0.00500 0.79000
v -1.76236 1.44500 1.01750
v -1.73205 1.44500 1.03500
v -1.70174 1.44500 1.01750
v -1.70174 1.44500 0.98250
v -1.73205 1.44500 0.96500
v -1.76236 1.44500 0.98250
v 1.26295 -0.00500 4.39202
v 1.55448 -0.00500 4.08968
v 1.43841 -0.00500 3.68604
v 1.03081 -0.00500 3.58474
v 0.73928 -0.00500 3.88708
v 0.85535 -0.00500 4.29072
v 1.15655 1.44500 4.02202
v 1.18084 1.44500 3.99682
v 1.17117 1.44500 3.96319
v 1.13720 1.44500 3.95474
v 1.11291 1.44500 3.97994
v 1.12258 1.44500 4.01358
v 3.60331 -0.00500 2.81088
v 3.66145 -0.00500 2.39492
v 3.33029 -0.00500 2.13659
v 2.94100 -0.00500 2.29422
v 2.88285 -0.00500 2.71018
v 3.21401 -0.00500 2.96851
v 3.29975 1.44500 2.57408
v 3.30459 1.44500 2.53942
v 3.27700 1.44500 2.51789
v 3.24456 1.44500 2.53102
v 3.23971 1.44500 2.56569
v 3.26731 1.44500 2.58721
v 4.56733 -0.00500 0.15608
v 4.36988 -0.00500 -0.21461
v 3.95012 -0.00500 -0.22896
v 3.72782 -0.00500 0.12739
v 3.92528 -0.00500 0.49808
v 4.34503 -0.00500 0.51242
v 4.18256 1.44500 0.14293
v 4.16610 1.44500 0.11204
v 4.13112 1.44500 0.11084
v 4.11260 1.44500 0.14054
v 4.12905 1.44500 0.17143
v 4.16403 1.44500 0.17262
v 3.78679 -0.00500 -2.55834
v 3.40916 -0.00500 -2.74218
v 3.06114 -0.00500 -2.50705
v 3.09075 -0.00500 -2.08810
v 3.46838 -0.00500 -1.90427
v 3.81640 -0.00500 -2.13939
v 3.46777 1.44500 -2.34281
v 3.43630 1.44500 -2.35813
v 3.40730 1.44500 -2.33854
v 3.40977 1.44500 -2.30363
v 3.44124 1.44500 -2.28831
v 3.47024 1.44500 -2.30790
v 1.55982 -0.00500 -4.29556
v 1.14626 -0.00500 -4.22232
v 1.00290 -0.00500 -3.82754
v 1.27312 -0.00500 -3.50601
v 1.68668 -0.00500 -3.57925
v 1.83003 -0.00500 -3.97403
v 1.42841 1.44500 -3.93368
v 1.39395 1.44500 -3.92758
v 1.38201 1.44500 -3.89468
v 1.40452 1.44500 -3.86789
v 1.43899 1.44500 -3.87399
v 1.45093 1.44500 -3.90689
v -1.26295 -0.00500 -4.39202
v -1.55448 -0.00500 -4.08968
v -1.43841 -0.00500 -3.68604
v -1.03081 -0.00500 -3.58474
v -0.73928 -0.00500 -3.88708
v -0.85535 -0.00500 -4.29072
v -1.15655 1.44500 -4.02202
v -1.18084 1.44500 -3.99682
v -1.17117 1.44500 -3.96319
v -1.13720 1.44500 -3.95474
v -1.11291 1.44500 -3.97994
v -1.12258 1.44500 -4.01358
v -3.60331 -0.00500 -2.81088
v -3.66145 -0.00500 -2.39492
v -3.33029 -0.00500 -2.13659
v -2.94100 -0.00500 -2.29422
v -2.88285 -0.00500 -2.71018
v -3.21401 -0.00500 -2.96851
v -3.29975 1.44500 -2.57408
v -3.30459 1.44500 -2.53942
v -3.27700 1.44500 -2.51789
v -3.24456 1.44500 -2.53102
v -3.23971 1.44500 -2.56569
v -3.26731 1.44500 -2.58721
v -4.56733 -0.00500 -0.15608
v -4.36988 -0.00500 0.21461
v -3.95012 -0.00500 0.22896
v -3.72782 -0.00500 -0.12739
v -3.92528 -0.00500 -0.49808
v -4.34503 -0.00500 -0.51242
v -4.18256 1.44500 -0.14293
v -4.16610 1.44500 -0.11204
v -4.13112 1.44500 -0.11084
v -4.11260 1.44500 -0.14054
v -4.12905 1.44500 -0.17143
v -4.16403 1.44500 -0.17262
v -3.78679 -0.00500 2.55834
v -3.40916 -0.00500 2.74218
v -3.06114 -0.00500 2.50705
v -3.09075 -0.00500 2.08810
v -3.46838 -0.00500 1.90427
v -3.81640 -0.00500 2.13939
v -3.46777 1.44500 2.34281
v -3.43630 1.44500 2.35813
v -3.40730 1.44500 2.33854
v -3.40977 1.44500 2.30363
v -3.44124 1.44500 2.28831
v -3.47024 1.44500 2.30790
v -1.55982 -0.00500 4.29556
v -1.14626 -0.00500 4.22232
v -1.00290 -0.00500 3.82754
v -1.27312 -0.00500 3.50601
v -1.68668 -0.00500 3.57925
v -1.83003 -0.00500 3.97403
v -1.42841 1.44500 3.93368
v -1.39395 1.44500 3.92758
v -1.38201 1.44500 3.89468
v -1.40452 1.44500 3.86789
v -1.43899 1.44500 3.87399
v -1.45093 1.44500 3.90689
v 3.56957 -0.00500 5.69355
v 3.76619 -0.00500 5.32242
v 3.54310 -0.00500 4.96657
v 3.12337 -0.00500 4.98186
v 2.92675 -0.00500 5.35299
v 3.14985 -0.00500 5.70884
v 3.36506 1.44500 5.36736
v 3.38145 1.44500 5.33643
v 3.36286 1.44500 5.30678
v 3.32788 1.44500 5.30805
v 3.31150 1.44500 5.33898
v 3.33009 1.44500 5.36863
v 5.68641 -0.00500 3.58094
v 5.70254 -0.00500 3.16125
v 5.34714 -0.00500 2.93744
v 4.97561 -0.00500 3.13332
v 4.95949 -0.00500 3.55301
v 5.31489 -0.00500 3.77682
v 5.36063 1.44500 3.37578
v 5.36197 1.44500 3.34080
v 5.33236 1.44500 3.32215
v 5.30140 1.44500 3.33848
v 5.30005 1.44500 3.37345
v 5.32967 1.44500 3.39210
v 6.67699 -0.00500 0.75907
v 6.50942 -0.00500 0.37395
v 6.09211 -0.00500 0.32650
v 5.84237 -0.00500 0.66419
v 6.00994 -0.00500 1.04931
v 6.42725 -0.00500 1.09675
v 6.29446 1.44500 0.71558
v 6.28049 1.44500 0.68349
v 6.24572 1.44500 0.67953
v 6.22490 1.44500 0.70767
v 6.23887 1.44500 0.73977
v 6.27364 1.44500 0.74372
v 6.34511 -0.00500 -2.21314
v 6.02704 -0.00500 -2.48742
v 5.63047 -0.00500 -2.34910
v 5.55197 -0.00500 -1.93650
v 5.87005 -0.00500 -1.66222
v 6.26661 -0.00500 -1.80054
v 5.98159 1.44500 -2.08635
v 5.95508 1.44500 -2.10920
v 5.92203 1.44500 -2.09767
v 5.91549 1.44500 -2.06329
v 5.94200 1.44500 -2.04044
v 5.97505 1.44500 -2.05196
v 4.75650 -0.00500 -4.74701
v 4.35092 -0.00500 -4.85612
v 4.05364 -0.00500 -4.55943
v 4.16194 -0.00500 -4.15363
v 4.56752 -0.00500 -4.04452
v 4.86480 -0.00500 -4.34121
v 4.48399 1.44500 -4.47505
v 4.45019 1.44500 -4.48414
v 4.42542 1.44500 -4.45941
v 4.43445 1.44500 -4.42560
v 4.46824 1.44500 -4.41651
v 4.49302 1.44500 -4.44123
v 2.22581 -0.00500 -6.34068
v 1.81305 -0.00500 -6.26301
v 1.67394 -0.00500 -5.86671
v 1.94758 -0.00500 -5.54809
v 2.36034 -0.00500 -5.62576
v 2.49945 -0.00500 -6.02205
v 2.09829 1.44500 -5.97741
v 2.06389 1.44500 -5.97094
v 2.05230 1.44500 -5.93791
v 2.07510 1.44500 -5.91136
v 2.10950 1.44500 -5.91783
v 2.12109 1.44500 -5.95086
v -0.74573 -0.00500 -6.67849
v -1.08391 -0.00500 -6.42943
v -1.03730 -0.00500 -6.01202
v -0.65252 -0.00500 -5.84368
v -0.31434 -0.00500 -6.09275
v -0.36094 -0.00500 -6.51016
v -0.70301 1.44500 -6.29587
v -0.73119 1.44500 -6.27512
v -0.72731 1.44500 -6.24033
v -0.69524 1.44500 -6.22630
v -0.66706 1.44500 -6.24706
v -0.67094 1.44500 -6.28184
v -3.56957 -0.00500 -5.69355
v -3.76619 -0.00500 -5.32242
v -3.54310 -0.00500 -4.96657
v -3.12337 -0.00500 -4.98186
v -2.92675 -0.00500 -5.35299
v -3.14985 -0.00500 -5.70884
v -3.36506 1.44500 -5.36736
v -3.38145 1.44500 -5.33643
v -3.36286 1.44500 -5.30678
v -3.32788 1.44500 -5.30805
v -3.31150 1.44500 -5.33898
v -3.33009 1.44500 -5.36863
v -5.68641 -0.00500 -3.58094
v -5.70254 -0.00500 -3.16125
v -5.34714 -0.00500 -2.93744
v -4.97561 -0.00500 -3.13332
v -4.95949 -0.00500 -3.55301
v -5.31489 -0.00500 -3.77682
v -5.36063 1.44500 -3.37578
v -5.36197 1.44500 -3.34080
v -5.33236 1.44500 -3.32215
v -5.30140 1.44500 -3.33848
v -5.30005 1.44500 -3.37345
v -5.32967 1.44500 -3.39210
v -6.67699 -0.00500 -0.75907
v -6.50942 -0.00500 -0.37395
v -6.09211 -0.00500 -0.32650
v -5.84237 -0.00500 -0.66419
v -6.00994 -0.00500 -1.04931
v -6.42725 -0.00500 -1.09675
v -6.29446 1.44500 -0.71558
v -6.28049 1.44500 -0.68349
v -6.24572 1.44500 -0.67953
v -6.22490 1.44500 -0.70767
v -6.23887 1.44500 -0.73977
v -6.27364 1.44500 -0.74372
v -6.34511 -0.00500 2.21314
v -6.02704 -0.00500 2.48742
v -5.63047 -0.00500 2.34910
v -5.55197 -0.00500 1.93650
v -5.87005 -0.00500 1.66222
v -6.26661 -0.00500 1.80054
v -5.98159 1.44500 2.08635
v -5.95508 1.44500 2.10920
v -5.92203 1.44500 2.09767
v -5.91549 1.44500 2.06329
v -5.94200 1.44500 2.04044
v -5.97505 1.44500 2.05196
v -4.75650 -0.00500 4.74701
v -4.35092 -0.00500 4.85612
v -4.05364 -0.00500 4.55943
v -4.16194 -0.00500 4.15363
v -4.56752 -0.00500 4.04452
v -4.86480 -0.00500 4.34121
v -4.48399 1.44500 4.47505
v -4.45019 1.44500 4.48414
v -4.42542 1.44500 4.45941
v -4.43445 1.44500 4.42560
v -4.46824 1.44500 4.41651
v -4.49302 1.44500 4.44123
v -2.22581 -0.00500 6.34068
v -1.81305 -0.00500 6.26301
v -1.67394 -0.00500 5.86671
v -1.94758 -0.00500 5.54809
v -2.36034 -0.00500 5.62576
v -2.49945 -0.00500 6.02205
v -2.09829 1.44500 5.97741
v -2.06389 1.44500 5.97094
v -2.05230 1.44500 5.93791
v -2.07510 1.44500 5.91136
v -2.10950 1.44500 5.91783
v -2.12109 1.44500 5.95086
v 0.74573 -0.00500 6.67849
v 1.08391 -0.00500 6.42943
v 1.03730 -0.00500 6.01202
v 0.65252 -0.00500 5.84368
v 0.31434 -0.00500 6.09275
v 0.36094 -0.00500 6.51016
v 0.70301 1.44500 6.29587
v 0.73119 1.44500 6.27512
v 0.72731 1.44500 6.24033
v 0.69524 1.44500 6.22630
v 0.66706 1.44500 6.24706
v 0.67094 1.44500 6.28184
usemtl spike_base
f 16 15 14 13 12 11 10 9 8 7 6 5 4 3 2 1
f 17 18 19 20 21 22 23 24 25 26 27 28 29 30 31 32
f 1 2 18 17
f 2 3 19 18
f 3 4 20 19
f 4 5 21 20
f 5 6 22 21
f 6 7 23 22
f 7 8 24 23
f 8 9 25 24
f 9 10 26 25
f 10 11 27 26
f 11 12 28 27
f 12 13 29 28
f 13 14 30 29
f 14 15 31 30
f 15 16 32 31
f 16 1 17 32
usemtl spike
f 38 37 36 35 34 33
f 39 40 41 42 43 44
f 33 34 40 39
f 34 35 41 40
f 35 36 42 41
f 36 37 43 42
f 37 38 44 43
f 38 33 39 44
usemtl spike
f 50 49 48 47 46 45
f 51 52 53 54 55 56
f 45 46 52 51
f 46 47 53 52
f 47 48 54 53
f 48 49 55 54
f 49 50 56 55
f 50 45 51 56
usemtl spike
f 62 61 60 59 58 57
f 63 64 65 66 67 68
f 57 58 64 63
f 58 59 65 64
f 59 60 66 65
f 60 61 67 66
f 61 62 68 67
f 62 57 63 68
usemtl spike
f 74 73 72 71 70 69
f 75 76 77 78 79 80
f 69 70 76 75
f 70 71 77 76
f 71 72 78 77
f 72 73 79 78
f 73 74 80 79
f 74 69 75 80
usemtl spike
f 86 85 84 83 82 81
f 87 88 89 90 91 92
f 81 82 88 87
f 82 83 89 88
f 83 84 90 89
f 84 85 91 90
f 85 86 92 91
f 86 81 87 92
usemtl spike
f 98 97 96 95 94 93
f 99 100 101 102 103 104
f 93 94 100 99
f 94 95 101 100
f 95 96 102 101
f 96 97 103 102
f 97 98 104 103
f 98 93 99 104
usemtl spike
f 110 109 108 107 106 105
f 111 112 113 114 115 116
f 105 106 112 111
f 106 107 113 112
f 107 108 114 113
f 108 109 115 114
f 109 110 116 115
f 110 105 111 116
usemtl spike
f 122 121 120 119 118 117
f 123 124 125 126 127 128
f 117 118 124 123
f 118 119 125 124
f 119 120 126 125
f 120 121 127 126
f 121 122 128 127
f 122 117 123 128
usemtl spike
f 134 133 132 131 130 129
f 135 136 137 138 139 140
f 129 130 136 135
f 130 131 137 136
f 131 132 138 137
f 132 133 139 138
f 133 134 140 139
f 134 129 135 140
usemtl spike
f 146 145 144 143 142 141
f 147 148 149 150 151 152
f 141 142 148 147
f 142 143 149 148
f 143 144 150 149
f 144 145 151 150
f 145 146 152 151
f 146 141 147 152
usemtl spike
f 158 157 156 155 154 153
f 159 160 161 162 163 164
f 153 154 160 159
f 154 155 161 160
f 155 156 162 161
f 156 157 163 162
f 157 158 164 163
f 158 153 159 164
usemtl spike
f 170 169 168 167 166 165
f 171 172 173 174 175 176
f 165 166 172 171
f 166 167 173 172
f 167 168 174 173
f 168 169 175 174
f 169 170 176 175
f 170 165 171 176
usemtl spike
f 182 181 180 179 178 177
f 183 184 185 186 187 188
f 177 178 184 183
f 178 179 185 184
f 179 180 186 185
f 180 181 187 186
f 181 182 188 187
f 182 177 183 188
usemtl spike
f 194 193 192 191 190 189
f 195 196 197 198 199 200
f 189 190 196 195
f 190 191 197 196
f 191 192 198 197
f 192 193 199 198
f 193 194 200 199
f 194 189 195 200
usemtl spike
f 206 205 204 203 202 201
f 207 208 209 210 211 212
f 201 202 208 207
f 202 203 209 208
f 203 204 210 209
f 204 205 211 210
f 205 206 212 211
f 206 201 207 212
usemtl spike
f 218 217 216 215 214 213
f 219 220 221 222 223 224
f 213 214 220 219
f 214 215 221 220
f 215 216 222 221
f 216 217 223 222
f 217 218 224 223
f 218 213 219 224
usemtl spike
f 230 229 228 227 226 225
f 231 232 233 234 235 236
f 225 226 232 231
f 226 227 233 232
f 227 228 234 233
f 228 229 235 234
f 229 230 236 235
f 230 225 231 236
usemtl spike
f 242 241 240 239 238 237
f 243 244 245 246 247 248
f 237 238 244 243
f 238 239 245 244
f 239 240 246 245
f 240 241 247 246
f 241 242 248 247
f 242 237 243 248
usemtl spike
f 254 253 252 251 250 249
f 255 256 257 258 259 260
f 249 250 256 255
f 250 251 257 256
f 251 252 258 257
f 252 253 259 258
f 253 254 260 259
f 254 249 255 260
usemtl spike
f 266 265 264 263 262 261
f 267 268 269 270 271 272
f 261 262 268 267
f 262 263 269 268
f 263 264 270 269
f 264 265 271 270
f 265 266 272 271
f 266 261 267 272
usemtl spike
f 278 277 276 275 274 273
f 279 280 281 282 283 284
f 273 274 280 279
f 274 275 281 280
f 275 276 282 281
f 276 277 283 282
f 277 278 284 283
f 278 273 279 284
usemtl spike
f 290 289 288 287 286 285
f 291 292 293 294 295 296
f 285 286 292 291
f 286 287 293 292
f 287 288 294 293
f 288 289 295 294
f 289 290 296 295
f 290 285 291 296
usemtl spike
f 302 301 300 299 298 297
f 303 304 305 306 307 308
f 297 298 304 303
f 298 299 305 304
f 299 300 306 305
f 300 301 307 306
f 301 302 308 307
f 302 297 303 308
usemtl spike
f 314 313 312 311 310 309
f 315 316 317 318 319 320
f 309 310 316 315
f 310 311 317 316
f 311 312 318 317
f 312 313 319 318
f 313 314 320 319
f 314 309 315 320
usemtl spike
f 326 325 324 323 322 321
f 327 328 329 330 331 332
f 321 322 328 327
f 322 323 329 328
f 323 324 330 329
f 324 325 331 330
f 325 326 332 331
f 326 321 327 332
usemtl spike
f 338 337 336 335 334 333
f 339 340 341 342 343 344
f 333 334 340 339
f 334 335 341 340
f 335 336 342 341
f 336 337 343 342
f 337 338 344 343
f 338 333 339 344
usemtl spike
f 350 349 348 347 346 345
f 351 352 353 354 355 356
f 345 346 352 351
f 346 347 353 352
f 347 348 354 353
f 348 349 355 354
f 349 350 356 355
f 350 345 351 356
usemtl spike
f 362 361 360 359 358 357
f 363 364 365 366 367 368
f 357 358 364 363
f 358 359 365 364
f 359 360 366 365
f 360 361 367 366
f 361 362 368 367
f 362 357 363 368
usemtl spike
f 374 373 372 371 370 369
f 375 376 377 378 379 380
f 369 370 376 375
f 370 371 377 376
f 371 372 378 377
f 372 373 379 378
f 373 374 380 379
f 374 369 375 380
usemtl spike
f 386 385 384 383 382 381
f 387 388 389 390 391 392
f 381 382 388 387
f 382 383 389 388
f 383 384 390 389
f 384 385 391 390
f 385 386 392 391
f 386 381 387 392
