mtllib environment.mtl
o spinner_hub
v 0.00000 0.00000 2.30000
v 1.35191 0.00000 1.86074
v 2.18743 0.00000 0.71074
v 2.18743 0.00000 -0.71074
v 1.35191 0.00000 -1.86074
v 0.00000 0.00000 -2.30000
v -1.35191 0.00000 -1.86074
v -2.18743 0.00000 -0.71074
v -2.18743 0.00000 0.71074
v -1.35191 0.00000 1.86074
v 0.00000 0.40000 2.00000
v 1.17557 0.40000 1.61803
v 1.90211 0.40000 0.61803
v 1.90211 0.40000 -0.61803
v 1.17557 0.40000 -1.61803
v 0.00000 0.40000 -2.00000
v -1.17557 0.40000 -1.61803
v -1.90211 0.40000 -0.61803
v -1.90211 0.40000 0.61803
v -1.17557 0.40000 1.61803
v 0.00000 0.20000 1.45000
v 1.02530 0.20000 1.02530
v 1.45000 0.20000 0.00000
v 1.02530 0.20000 -1.02530
v 0.00000 0.20000 -1.45000
v -1.02530 0.20000 -1.02530
v -1.45000 0.20000 -0.00000
v -1.02530 0.20000 1.02530
v 0.00000 1.30000 1.05000
v 0.74246 1.30000 0.74246
v 1.05000 1.30000 0.00000
v 0.74246 1.30000 -0.74246
v 0.00000 1.30000 -1.05000
v -0.74246 1.30000 -0.74246
v -1.05000 1.30000 -0.00000
v -0.74246 1.30000 0.74246
v -0.52500 0.39000 0.90000
v 0.52500 0.39000 0.90000
v 0.52500 1.11000 0.90000
v -0.52500 1.11000 0.90000
v -0.52500 0.39000 8.10000
v 0.52500 0.39000 8.10000
v 0.52500 1.11000 8.10000
v -0.52500 1.11000 8.10000
v 1.04192 0.39000 0.00466
v 0.51692 0.39000 -0.90466
v 0.51692 1.11000 -0.90466
v 1.04192 1.11000 0.00466
v 7.27731 0.39000 -3.59534
v 6.75231 0.39000 -4.50466
v 6.75231 1.11000 -4.50466
v 7.27731 1.11000 -3.59534
v -0.51692 0.39000 -0.90466
v -1.04192 0.39000 0.00466
v -1.04192 1.11000 0.00466
v -0.51692 1.11000 -0.90466
v -6.75231 0.39000 -4.50466
v -7.27731 0.39000 -3.59534
v -7.27731 1.11000 -3.59534
v -6.75231 1.11000 -4.50466
usemtl metal_dark
f 10 9 8 7 6 5 4 3 2 1
f 11 12 13 14 15 16 17 18 19 20
f 1 2 12 11
f 2 3 13 12
f 3 4 14 13
f 4 5 15 14
f 5 6 16 15
f 6 7 17 16
f 7 8 18 17
f 8 9 19 18
f 9 10 20 19
f 10 1 11 20
usemtl laser
f 28 27 26 25 24 23 22 21
f 29 30 31 32 33 34 35 36
f 21 22 30 29
f 22 23 31 30
f 23 24 32 31
f 24 25 33 32
f 25 26 34 33
f 26 27 35 34
f 27 28 36 35
f 28 21 29 36
usemtl spinner
f 37 38 39 40
f 41 44 43 42
f 37 41 42 38
f 38 42 43 39
f 39 43 44 40
f 41 37 40 44
usemtl spinner
f 45 46 47 48
f 49 52 51 50
f 45 49 50 46
f 46 50 51 47
f 47 51 52 48
f 49 45 48 52
usemtl spinner
f 53 54 55 56
f 57 60 59 58
f 53 57 58 54
f 54 58 59 55
f 55 59 60 56
f 57 53 56 60
