mtllib environment.mtl
o team_tower_orange
v 0.00000 0.00000 6.80000
v 3.99694 0.00000 5.50132
v 6.46718 0.00000 2.10132
v 6.46718 0.00000 -2.10132
v 3.99694 0.00000 -5.50132
v 0.00000 0.00000 -6.80000
v -3.99694 0.00000 -5.50132
v -6.46718 0.00000 -2.10132
v -6.46718 0.00000 2.10132
v -3.99694 0.00000 5.50132
v 0.00000 2.60000 5.90000
v 3.46793 2.60000 4.77320
v 5.61123 2.60000 1.82320
v 5.61123 2.60000 -1.82320
v 3.46793 2.60000 -4.77320
v 0.00000 2.60000 -5.90000
v -3.46793 2.60000 -4.77320
v -5.61123 2.60000 -1.82320
v -5.61123 2.60000 1.82320
v -3.46793 2.60000 4.77320
v 0.00000 2.50000 4.60000
v 2.70381 2.50000 3.72148
v 4.37486 2.50000 1.42148
v 4.37486 2.50000 -1.42148
v 2.70381 2.50000 -3.72148
v 0.00000 2.50000 -4.60000
v -2.70381 2.50000 -3.72148
v -4.37486 2.50000 -1.42148
v -4.37486 2.50000 1.42148
v -2.70381 2.50000 3.72148
v 0.00000 9.50000 4.00000
v 2.35114 9.50000 3.23607
v 3.80423 9.50000 1.23607
v 3.80423 9.50000 -1.23607
v 2.35114 9.50000 -3.23607
v 0.00000 9.50000 -4.00000
v -2.35114 9.50000 -3.23607
v -3.80423 9.50000 -1.23607
v -3.80423 9.50000 1.23607
v -2.35114 9.50000 3.23607
v 0.00000 9.45000 5.50000
v 3.23282 9.45000 4.44959
v 5.23081 9.45000 1.69959
v 5.23081 9.45000 -1.69959
v 3.23282 9.45000 -4.44959
v 0.00000 9.45000 -5.50000
v -3.23282 9.45000 -4.44959
v -5.23081 9.45000 -1.69959
v -5.23081 9.45000 1.69959
v -3.23282 9.45000 4.44959
v 0.00000 10.15000 5.50000
v 3.23282 10.15000 4.44959
v 5.23081 10.15000 1.69959
v 5.23081 10.15000 -1.69959
v 3.23282 10.15000 -4.44959
v 0.00000 10.15000 -5.50000
v -3.23282 10.15000 -4.44959
v -5.23081 10.15000 -1.69959
v -5.23081 10.15000 1.69959
v -3.23282 10.15000 4.44959
v 0.00000 10.00000 2.10000
v 1.48492 10.00000 1.48492
v 2.10000 10.00000 0.00000
v 1.48492 10.00000 -1.48492
v 0.00000 10.00000 -2.10000
v -1.48492 10.00000 -1.48492
v -2.10000 10.00000 -0.00000
v -1.48492 10.00000 1.48492
v 0.00000 14.00000 1.45000
v 1.02530 14.00000 1.02530
v 1.45000 14.00000 0.00000
v 1.02530 14.00000 -1.02530
v 0.00000 14.00000 -1.45000
v -1.02530 14.00000 -1.02530
v -1.45000 14.00000 -0.00000
v -1.02530 14.00000 1.02530
v -0.50000 2.90000 3.85000
v 0.50000 2.90000 3.85000
v 0.50000 9.10000 3.85000
v -0.50000 9.10000 3.85000
v -0.50000 2.90000 4.85000
v 0.50000 2.90000 4.85000
v 0.50000 9.10000 4.85000
v -0.50000 9.10000 4.85000
v 3.85000 2.90000 -0.50000
v 4.85000 2.90000 -0.50000
v 4.85000 9.10000 -0.50000
v 3.85000 9.10000 -0.50000
v 3.85000 2.90000 0.50000
v 4.85000 2.90000 0.50000
v 4.85000 9.10000 0.50000
v 3.85000 9.10000 0.50000
v -0.50000 2.90000 -4.85000
v 0.50000 2.90000 -4.85000
v 0.50000 9.10000 -4.85000
v -0.50000 9.10000 -4.85000
v -0.50000 2.90000 -3.85000
v 0.50000 2.90000 -3.85000
v 0.50000 9.10000 -3.85000
v -0.50000 9.10000 -3.85000
v -4.85000 2.90000 -0.50000
v -3.85000 2.90000 -0.50000
v -3.85000 9.10000 -0.50000
v -4.85000 9.10000 -0.50000
v -4.85000 2.90000 0.50000
v -3.85000 2.90000 0.50000
v -3.85000 9.10000 0.50000
v -4.85000 9.10000 0.50000
usemtl metal_dark
f 10 9 8 7 6 5 4 3 2 1
f 11 12 13 14 15 16 17 18 19 20
f 1 2 12 11
f 2 3 13 12
f 3 4 14 13
f 4 5 15 14
f 5 6 16 15
f 6 7 17 16
f 7 8 18 17
f 8 9 19 18
f 9 10 20 19
f 10 1 11 20
usemtl tower
f 30 29 28 27 26 25 24 23 22 21
f 31 32 33 34 35 36 37 38 39 40
f 21 22 32 31
f 22 23 33 32
f 23 24 34 33
f 24 25 35 34
f 25 26 36 35
f 26 27 37 36
f 27 28 38 37
f 28 29 39 38
f 29 30 40 39
f 30 21 31 40
usemtl metal
f 50 49 48 47 46 45 44 43 42 41
f 51 52 53 54 55 56 57 58 59 60
f 41 42 52 51
f 42 43 53 52
f 43 44 54 53
f 44 45 55 54
f 45 46 56 55
f 46 47 57 56
f 47 48 58 57
f 48 49 59 58
f 49 50 60 59
f 50 41 51 60
usemtl energy_orange
f 68 67 66 65 64 63 62 61
f 69 70 71 72 73 74 75 76
f 61 62 70 69
f 62 63 71 70
f 63 64 72 71
f 64 65 73 72
f 65 66 74 73
f 66 67 75 74
f 67 68 76 75
f 68 61 69 76
usemtl energy_orange
f 77 78 79 80
f 81 84 83 82
f 77 81 82 78
f 78 82 83 79
f 79 83 84 80
f 81 77 80 84
usemtl energy_orange
f 85 86 87 88
f 89 92 91 90
f 85 89 90 86
f 86 90 91 87
f 87 91 92 88
f 89 85 88 92
usemtl energy_orange
f 93 94 95 96
f 97 100 99 98
f 93 97 98 94
f 94 98 99 95
f 95 99 100 96
f 97 93 96 100
usemtl energy_orange
f 101 102 103 104
f 105 108 107 106
f 101 105 106 102
f 102 106 107 103
f 103 107 108 104
f 105 101 104 108
