mtllib combatants.mtl
o elephant_guardian
v 0.00000 -0.29000 1.64640
v 0.82320 -0.29000 1.42582
v 1.42582 -0.29000 0.82320
v 1.64640 -0.29000 0.00000
v 1.42582 -0.29000 -0.82320
v 0.82320 -0.29000 -1.42582
v 0.00000 -0.29000 -1.64640
v -0.82320 -0.29000 -1.42582
v -1.42582 -0.29000 -0.82320
v -1.64640 -0.29000 -0.00000
v -1.42582 -0.29000 0.82320
v -0.82320 -0.29000 1.42582
v 0.00000 0.39000 1.31320
v 0.65660 0.39000 1.13726
v 1.13726 0.39000 0.65660
v 1.31320 0.39000 0.00000
v 1.13726 0.39000 -0.65660
v 0.65660 0.39000 -1.13726
v 0.00000 0.39000 -1.31320
v -0.65660 0.39000 -1.13726
v -1.13726 0.39000 -0.65660
v -1.31320 0.39000 -0.00000
v -1.13726 0.39000 0.65660
v -0.65660 0.39000 1.13726
v 0.00000 0.15000 1.01760
v 0.64515 0.15000 0.80798
v 1.04388 0.15000 0.25918
v 1.04388 0.15000 -0.41918
v 0.64515 0.15000 -0.96798
v 0.00000 0.15000 -1.17760
v -0.64515 0.15000 -0.96798
v -1.04388 0.15000 -0.41918
v -1.04388 0.15000 0.25918
v -0.64515 0.15000 0.80798
v 0.00000 0.71000 0.68440
v 0.44930 0.71000 0.53841
v 0.72699 0.71000 0.15621
v 0.72699 0.71000 -0.31621
v 0.44930 0.71000 -0.69841
v 0.00000 0.71000 -0.84440
v -0.44930 0.71000 -0.69841
v -0.72699 0.71000 -0.31621
v -0.72699 0.71000 0.15621
v -0.44930 0.71000 0.53841
v 0.00000 0.52000 0.52000
v 0.38794 0.52000 0.39395
v 0.62770 0.52000 0.06395
v 0.62770 0.52000 -0.34395
v 0.38794 0.52000 -0.67395
v 0.00000 0.52000 -0.80000
v -0.38794 0.52000 -0.67395
v -0.62770 0.52000 -0.34395
v -0.62770 0.52000 0.06395
v -0.38794 0.52000 0.39395
v 0.00000 1.04000 0.34000
v 0.28214 1.04000 0.24833
v 0.45651 1.04000 0.00833
v 0.45651 1.04000 -0.28833
v 0.28214 1.04000 -0.52833
v 0.00000 1.04000 -0.62000
v -0.28214 1.04000 -0.52833
v -0.45651 1.04000 -0.28833
v -0.45651 1.04000 0.00833
v -0.28214 1.04000 0.24833
v -0.85750 -0.01500 1.29000
v 0.85750 -0.01500 1.29000
v 0.85750 0.33500 1.29000
v -0.85750 0.33500 1.29000
v -0.85750 -0.01500 1.67000
v 0.85750 -0.01500 1.67000
v 0.85750 0.33500 1.67000
v -0.85750 0.33500 1.67000
v -1.42520 -0.06000 -1.00500
v -1.00520 -0.06000 -1.00500
v -1.00520 0.42000 -1.00500
v -1.42520 0.42000 -1.00500
v -1.42520 -0.06000 0.24500
v -1.00520 -0.06000 0.24500
v -1.00520 0.42000 0.24500
v -1.42520 0.42000 0.24500
v -0.89180 -0.46000 -0.38000
v -0.68674 -0.46000 -0.46494
v -0.60180 -0.46000 -0.67000
v -0.68674 -0.46000 -0.87506
v -0.89180 -0.46000 -0.96000
v -1.09686 -0.46000 -0.87506
v -1.18180 -0.46000 -0.67000
v -1.09686 -0.46000 -0.46494
v -0.89180 -0.28000 -0.47000
v -0.75038 -0.28000 -0.52858
v -0.69180 -0.28000 -0.67000
v -0.75038 -0.28000 -0.81142
v -0.89180 -0.28000 -0.87000
v -1.03322 -0.28000 -0.81142
v -1.09180 -0.28000 -0.67000
v -1.03322 -0.28000 -0.52858
v -0.89180 -0.46000 0.95000
v -0.68674 -0.46000 0.86506
v -0.60180 -0.46000 0.66000
v -0.68674 -0.46000 0.45494
v -0.89180 -0.46000 0.37000
v -1.09686 -0.46000 0.45494
v -1.18180 -0.46000 0.66000
v -1.09686 -0.46000 0.86506
v -0.89180 -0.28000 0.86000
v -0.75038 -0.28000 0.80142
v -0.69180 -0.28000 0.66000
v -0.75038 -0.28000 0.51858
v -0.89180 -0.28000 0.46000
v -1.03322 -0.28000 0.51858
v -1.09180 -0.28000 0.66000
v -1.03322 -0.28000 0.80142
v -1.04360 -0.05000 -1.53000
v -0.56360 -0.05000 -1.53000
v -0.56360 0.37000 -1.53000
v -1.04360 0.37000 -1.53000
v -1.04360 -0.05000 -1.11000
v -0.56360 -0.05000 -1.11000
v -0.56360 0.37000 -1.11000
v -1.04360 0.37000 -1.11000
v -0.80360 0.31000 -1.57000
v -0.80360 -0.03000 -1.57000
v -0.80360 0.14000 -1.45000
v -0.63039 0.14000 -1.51000
v -0.63039 0.14000 -1.63000
v -0.80360 0.14000 -1.69000
v -0.97681 0.14000 -1.63000
v -0.97681 0.14000 -1.51000
v 1.00520 -0.06000 -1.00500
v 1.42520 -0.06000 -1.00500
v 1.42520 0.42000 -1.00500
v 1.00520 0.42000 -1.00500
v 1.00520 -0.06000 0.24500
v 1.42520 -0.06000 0.24500
v 1.42520 0.42000 0.24500
v 1.00520 0.42000 0.24500
v 0.89180 -0.46000 -0.38000
v 1.09686 -0.46000 -0.46494
v 1.18180 -0.46000 -0.67000
v 1.09686 -0.46000 -0.87506
v 0.89180 -0.46000 -0.96000
v 0.68674 -0.46000 -0.87506
v 0.60180 -0.46000 -0.67000
v 0.68674 -0.46000 -0.46494
v 0.89180 -0.28000 -0.47000
v 1.03322 -0.28000 -0.52858
v 1.09180 -0.28000 -0.67000
v 1.03322 -0.28000 -0.81142
v 0.89180 -0.28000 -0.87000
v 0.75038 -0.28000 -0.81142
v 0.69180 -0.28000 -0.67000
v 0.75038 -0.28000 -0.52858
v 0.89180 -0.46000 0.95000
v 1.09686 -0.46000 0.86506
v 1.18180 -0.46000 0.66000
v 1.09686 -0.46000 0.45494
v 0.89180 -0.46000 0.37000
v 0.68674 -0.46000 0.45494
v 0.60180 -0.46000 0.66000
v 0.68674 -0.46000 0.86506
v 0.89180 -0.28000 0.86000
v 1.03322 -0.28000 0.80142
v 1.09180 -0.28000 0.66000
v 1.03322 -0.28000 0.51858
v 0.89180 -0.28000 0.46000
v 0.75038 -0.28000 0.51858
v 0.69180 -0.28000 0.66000
v 0.75038 -0.28000 0.80142
v 0.56360 -0.05000 -1.53000
v 1.04360 -0.05000 -1.53000
v 1.04360 0.37000 -1.53000
v 0.56360 0.37000 -1.53000
v 0.56360 -0.05000 -1.11000
v 1.04360 -0.05000 -1.11000
v 1.04360 0.37000 -1.11000
v 0.56360 0.37000 -1.11000
v 0.80360 0.31000 -1.57000
v 0.80360 -0.03000 -1.57000
v 0.80360 0.14000 -1.45000
v 0.97681 0.14000 -1.51000
v 0.97681 0.14000 -1.63000
v 0.80360 0.14000 -1.69000
v 0.63039 0.14000 -1.63000
v 0.63039 0.14000 -1.51000
v 0.00000 2.02000 0.06000
v 0.00000 0.92000 0.06000
v 0.00000 1.47000 0.59000
v 0.34092 1.47000 0.48878
v 0.55161 1.47000 0.22378
v 0.55161 1.47000 -0.10378
v 0.34092 1.47000 -0.36878
v 0.00000 1.47000 -0.47000
v -0.34092 1.47000 -0.36878
v -0.55161 1.47000 -0.10378
v -0.55161 1.47000 0.22378
v -0.34092 1.47000 0.48878
v -0.57000 1.89000 0.01000
v -0.57000 1.09000 0.01000
v -0.57000 1.49000 0.14000
v -0.32958 1.49000 0.10192
v -0.23000 1.49000 0.01000
v -0.32958 1.49000 -0.08192
v -0.57000 1.49000 -0.12000
v -0.81042 1.49000 -0.08192
v -0.91000 1.49000 0.01000
v -0.81042 1.49000 0.10192
v -0.44557 0.89000 0.23613
v -0.25039 0.89000 0.27978
v -0.25039 1.11000 0.27978
v -0.44557 1.11000 0.23613
v -0.58961 0.89000 0.88022
v -0.39443 0.89000 0.92387
v -0.39443 1.11000 0.92387
v -0.58961 1.11000 0.88022
v 0.57000 1.89000 0.01000
v 0.57000 1.09000 0.01000
v 0.57000 1.49000 0.14000
v 0.81042 1.49000 0.10192
v 0.91000 1.49000 0.01000
v 0.81042 1.49000 -0.08192
v 0.57000 1.49000 -0.12000
v 0.32958 1.49000 -0.08192
v 0.23000 1.49000 0.01000
v 0.32958 1.49000 0.10192
v 0.25039 0.89000 0.27978
v 0.44557 0.89000 0.23613
v 0.44557 1.11000 0.23613
v 0.25039 1.11000 0.27978
v 0.39443 0.89000 0.92387
v 0.58961 0.89000 0.88022
v 0.58961 1.11000 0.88022
v 0.39443 1.11000 0.92387
v 0.00000 0.79000 0.71000
v 0.11314 0.79000 0.66314
v 0.16000 0.79000 0.55000
v 0.11314 0.79000 0.43686
v 0.00000 0.79000 0.39000
v -0.11314 0.79000 0.43686
v -0.16000 0.79000 0.55000
v -0.11314 0.79000 0.66314
v 0.00000 1.61000 0.67000
v 0.08485 1.61000 0.63485
v 0.12000 1.61000 0.55000
v 0.08485 1.61000 0.46515
v 0.00000 1.61000 0.43000
v -0.08485 1.61000 0.46515
v -0.12000 1.61000 0.55000
v -0.08485 1.61000 0.63485
v -0.20000 1.67000 0.52000
v -0.20000 1.55000 0.52000
v -0.20000 1.61000 0.55500
v -0.15237 1.61000 0.53750
v -0.15237 1.61000 0.50250
v -0.20000 1.61000 0.48500
v -0.24763 1.61000 0.50250
v -0.24763 1.61000 0.53750
v 0.20000 1.67000 0.52000
v 0.20000 1.55000 0.52000
v 0.20000 1.61000 0.55500
v 0.24763 1.61000 0.53750
v 0.24763 1.61000 0.50250
v 0.20000 1.61000 0.48500
v 0.15237 1.61000 0.50250
v 0.15237 1.61000 0.53750
v 0.00000 0.30000 -0.95000
v 0.38891 0.30000 -1.11109
v 0.55000 0.30000 -1.50000
v 0.38891 0.30000 -1.88891
v 0.00000 0.30000 -2.05000
v -0.38891 0.30000 -1.88891
v -0.55000 0.30000 -1.50000
v -0.38891 0.30000 -1.11109
v 0.00000 1.10000 -1.18000
v 0.22627 1.10000 -1.27373
v 0.32000 1.10000 -1.50000
v 0.22627 1.10000 -1.72627
v 0.00000 1.10000 -1.82000
v -0.22627 1.10000 -1.72627
v -0.32000 1.10000 -1.50000
v -0.22627 1.10000 -1.27373
v -1.51000 0.19000 -0.11000
v -1.33000 0.19000 -0.11000
v -1.33000 0.91000 -0.11000
v -1.51000 0.91000 -0.11000
v -1.51000 0.19000 0.61000
v -1.33000 0.19000 0.61000
v -1.33000 0.91000 0.61000
v -1.51000 0.91000 0.61000
v 1.33000 0.19000 -0.11000
v 1.51000 0.19000 -0.11000
v 1.51000 0.91000 -0.11000
v 1.33000 0.91000 -0.11000
v 1.33000 0.19000 0.61000
v 1.51000 0.19000 0.61000
v 1.51000 0.91000 0.61000
v 1.33000 0.91000 0.61000
usemtl hull
f 12 11 10 9 8 7 6 5 4 3 2 1
f 13 14 15 16 17 18 19 20 21 22 23 24
f 1 2 14 13
f 2 3 15 14
f 3 4 16 15
f 4 5 17 16
f 5 6 18 17
f 6 7 19 18
f 7 8 20 19
f 8 9 21 20
f 9 10 22 21
f 10 11 23 22
f 11 12 24 23
f 12 1 13 24
usemtl blue_support
f 34 33 32 31 30 29 28 27 26 25
f 35 36 37 38 39 40 41 42 43 44
f 25 26 36 35
f 26 27 37 36
f 27 28 38 37
f 28 29 39 38
f 29 30 40 39
f 30 31 41 40
f 31 32 42 41
f 32 33 43 42
f 33 34 44 43
f 34 25 35 44
usemtl glass
f 54 53 52 51 50 49 48 47 46 45
f 55 56 57 58 59 60 61 62 63 64
f 45 46 56 55
f 46 47 57 56
f 47 48 58 57
f 48 49 59 58
f 49 50 60 59
f 50 51 61 60
f 51 52 62 61
f 52 53 63 62
f 53 54 64 63
f 54 45 55 64
usemtl bumper
f 65 66 67 68
f 69 72 71 70
f 65 69 70 66
f 66 70 71 67
f 67 71 72 68
f 69 65 68 72
usemtl blue_support
f 73 74 75 76
f 77 80 79 78
f 73 77 78 74
f 74 78 79 75
f 75 79 80 76
f 77 73 76 80
usemtl blue_glow
f 88 87 86 85 84 83 82 81
f 89 90 91 92 93 94 95 96
f 81 82 90 89
f 82 83 91 90
f 83 84 92 91
f 84 85 93 92
f 85 86 94 93
f 86 87 95 94
f 87 88 96 95
f 88 81 89 96
usemtl blue_glow
f 104 103 102 101 100 99 98 97
f 105 106 107 108 109 110 111 112
f 97 98 106 105
f 98 99 107 106
f 99 100 108 107
f 100 101 109 108
f 101 102 110 109
f 102 103 111 110
f 103 104 112 111
f 104 97 105 112
usemtl engine
f 113 114 115 116
f 117 120 119 118
f 113 117 118 114
f 114 118 119 115
f 115 119 120 116
f 117 113 116 120
usemtl blue_glow
f 121 123 124
f 122 124 123
f 121 124 125
f 122 125 124
f 121 125 126
f 122 126 125
f 121 126 127
f 122 127 126
f 121 127 128
f 122 128 127
f 121 128 123
f 122 123 128
usemtl blue_support
f 129 130 131 132
f 133 136 135 134
f 129 133 134 130
f 130 134 135 131
f 131 135 136 132
f 133 129 132 136
usemtl blue_glow
f 144 143 142 141 140 139 138 137
f 145 146 147 148 149 150 151 152
f 137 138 146 145
f 138 139 147 146
f 139 140 148 147
f 140 141 149 148
f 141 142 150 149
f 142 143 151 150
f 143 144 152 151
f 144 137 145 152
usemtl blue_glow
f 160 159 158 157 156 155 154 153
f 161 162 163 164 165 166 167 168
f 153 154 162 161
f 154 155 163 162
f 155 156 164 163
f 156 157 165 164
f 157 158 166 165
f 158 159 167 166
f 159 160 168 167
f 160 153 161 168
usemtl engine
f 169 170 171 172
f 173 176 175 174
f 169 173 174 170
f 170 174 175 171
f 171 175 176 172
f 173 169 172 176
usemtl blue_glow
f 177 179 180
f 178 180 179
f 177 180 181
f 178 181 180
f 177 181 182
f 178 182 181
f 177 182 183
f 178 183 182
f 177 183 184
f 178 184 183
f 177 184 179
f 178 179 184
usemtl elephant
f 185 187 188
f 186 188 187
f 185 188 189
f 186 189 188
f 185 189 190
f 186 190 189
f 185 190 191
f 186 191 190
f 185 191 192
f 186 192 191
f 185 192 193
f 186 193 192
f 185 193 194
f 186 194 193
f 185 194 195
f 186 195 194
f 185 195 196
f 186 196 195
f 185 196 187
f 186 187 196
usemtl elephant_inner
f 197 199 200
f 198 200 199
f 197 200 201
f 198 201 200
f 197 201 202
f 198 202 201
f 197 202 203
f 198 203 202
f 197 203 204
f 198 204 203
f 197 204 205
f 198 205 204
f 197 205 206
f 198 206 205
f 197 206 199
f 198 199 206
usemtl elephant
f 207 208 209 210
f 211 214 213 212
f 207 211 212 208
f 208 212 213 209
f 209 213 214 210
f 211 207 210 214
usemtl elephant_inner
f 215 217 218
f 216 218 217
f 215 218 219
f 216 219 218
f 215 219 220
f 216 220 219
f 215 220 221
f 216 221 220
f 215 221 222
f 216 222 221
f 215 222 223
f 216 223 222
f 215 223 224
f 216 224 223
f 215 224 217
f 216 217 224
usemtl elephant
f 225 226 227 228
f 229 232 231 230
f 225 229 230 226
f 226 230 231 227
f 227 231 232 228
f 229 225 228 232
usemtl elephant
f 240 239 238 237 236 235 234 233
f 241 242 243 244 245 246 247 248
f 233 234 242 241
f 234 235 243 242
f 235 236 244 243
f 236 237 245 244
f 237 238 246 245
f 238 239 247 246
f 239 240 248 247
f 240 233 241 248
usemtl eye
f 249 251 252
f 250 252 251
f 249 252 253
f 250 253 252
f 249 253 254
f 250 254 253
f 249 254 255
f 250 255 254
f 249 255 256
f 250 256 255
f 249 256 251
f 250 251 256
usemtl eye
f 257 259 260
f 258 260 259
f 257 260 261
f 258 261 260
f 257 261 262
f 258 262 261
f 257 262 263
f 258 263 262
f 257 263 264
f 258 264 263
f 257 264 259
f 258 259 264
usemtl blue_glow
f 272 271 270 269 268 267 266 265
f 273 274 275 276 277 278 279 280
f 265 266 274 273
f 266 267 275 274
f 267 268 276 275
f 268 269 277 276
f 269 270 278 277
f 270 271 279 278
f 271 272 280 279
f 272 265 273 280
usemtl blue_support
f 281 282 283 284
f 285 288 287 286
f 281 285 286 282
f 282 286 287 283
f 283 287 288 284
f 285 281 284 288
usemtl blue_support
f 289 290 291 292
f 293 296 295 294
f 289 293 294 290
f 290 294 295 291
f 291 295 296 292
f 293 289 292 296
