mtllib combatants.mtl
o monkey_brute
v 0.00000 -0.29000 1.88160
v 0.94080 -0.29000 1.62951
v 1.62951 -0.29000 0.94080
v 1.88160 -0.29000 0.00000
v 1.62951 -0.29000 -0.94080
v 0.94080 -0.29000 -1.62951
v 0.00000 -0.29000 -1.88160
v -0.94080 -0.29000 -1.62951
v -1.62951 -0.29000 -0.94080
v -1.88160 -0.29000 -0.00000
v -1.62951 -0.29000 0.94080
v -0.94080 -0.29000 1.62951
v 0.00000 0.39000 1.50080
v 0.75040 0.39000 1.29973
v 1.29973 0.39000 0.75040
v 1.50080 0.39000 0.00000
v 1.29973 0.39000 -0.75040
v 0.75040 0.39000 -1.29973
v 0.00000 0.39000 -1.50080
v -0.75040 0.39000 -1.29973
v -1.29973 0.39000 -0.75040
v -1.50080 0.39000 -0.00000
v -1.29973 0.39000 0.75040
v -0.75040 0.39000 1.29973
v 0.00000 0.15000 1.17440
v 0.73732 0.15000 0.93483
v 1.19301 0.15000 0.30763
v 1.19301 0.15000 -0.46763
v 0.73732 0.15000 -1.09483
v 0.00000 0.15000 -1.33440
v -0.73732 0.15000 -1.09483
v -1.19301 0.15000 -0.46763
v -1.19301 0.15000 0.30763
v -0.73732 0.15000 0.93483
v 0.00000 0.71000 0.79360
v 0.51349 0.71000 0.62676
v 0.83084 0.71000 0.18996
v 0.83084 0.71000 -0.34996
v 0.51349 0.71000 -0.78676
v 0.00000 0.71000 -0.95360
v -0.51349 0.71000 -0.78676
v -0.83084 0.71000 -0.34996
v -0.83084 0.71000 0.18996
v -0.51349 0.71000 0.62676
v 0.00000 0.52000 0.52000
v 0.38794 0.52000 0.39395
v 0.62770 0.52000 0.06395
v 0.62770 0.52000 -0.34395
v 0.38794 0.52000 -0.67395
v 0.00000 0.52000 -0.80000
v -0.38794 0.52000 -0.67395
v -0.62770 0.52000 -0.34395
v -0.62770 0.52000 0.06395
v -0.38794 0.52000 0.39395
v 0.00000 1.04000 0.34000
v 0.28214 1.04000 0.24833
v 0.45651 1.04000 0.00833
v 0.45651 1.04000 -0.28833
v 0.28214 1.04000 -0.52833
v 0.00000 1.04000 -0.62000
v -0.28214 1.04000 -0.52833
v -0.45651 1.04000 -0.28833
v -0.45651 1.04000 0.00833
v -0.28214 1.04000 0.24833
v -0.98000 -0.01500 1.29000
v 0.98000 -0.01500 1.29000
v 0.98000 0.33500 1.29000
v -0.98000 0.33500 1.29000
v -0.98000 -0.01500 1.67000
v 0.98000 -0.01500 1.67000
v 0.98000 0.33500 1.67000
v -0.98000 0.33500 1.67000
v -1.59880 -0.06000 -1.00500
v -1.17880 -0.06000 -1.00500
v -1.17880 0.42000 -1.00500
v -1.59880 0.42000 -1.00500
v -1.59880 -0.06000 0.24500
v -1.17880 -0.06000 0.24500
v -1.17880 0.42000 0.24500
v -1.59880 0.42000 0.24500
v -1.01920 -0.46000 -0.38000
v -0.81414 -0.46000 -0.46494
v -0.72920 -0.46000 -0.67000
v -0.81414 -0.46000 -0.87506
v -1.01920 -0.46000 -0.96000
v -1.22426 -0.46000 -0.87506
v -1.30920 -0.46000 -0.67000
v -1.22426 -0.46000 -0.46494
v -1.01920 -0.28000 -0.47000
v -0.87778 -0.28000 -0.52858
v -0.81920 -0.28000 -0.67000
v -0.87778 -0.28000 -0.81142
v -1.01920 -0.28000 -0.87000
v -1.16062 -0.28000 -0.81142
v -1.21920 -0.28000 -0.67000
v -1.16062 -0.28000 -0.52858
v -1.01920 -0.46000 0.95000
v -0.81414 -0.46000 0.86506
v -0.72920 -0.46000 0.66000
v -0.81414 -0.46000 0.45494
v -1.01920 -0.46000 0.37000
v -1.22426 -0.46000 0.45494
v -1.30920 -0.46000 0.66000
v -1.22426 -0.46000 0.86506
v -1.01920 -0.28000 0.86000
v -0.87778 -0.28000 0.80142
v -0.81920 -0.28000 0.66000
v -0.87778 -0.28000 0.51858
v -1.01920 -0.28000 0.46000
v -1.16062 -0.28000 0.51858
v -1.21920 -0.28000 0.66000
v -1.16062 -0.28000 0.80142
v -1.15840 -0.05000 -1.53000
v -0.67840 -0.05000 -1.53000
v -0.67840 0.37000 -1.53000
v -1.15840 0.37000 -1.53000
v -1.15840 -0.05000 -1.11000
v -0.67840 -0.05000 -1.11000
v -0.67840 0.37000 -1.11000
v -1.15840 0.37000 -1.11000
v -0.91840 0.31000 -1.57000
v -0.91840 -0.03000 -1.57000
v -0.91840 0.14000 -1.45000
v -0.74519 0.14000 -1.51000
v -0.74519 0.14000 -1.63000
v -0.91840 0.14000 -1.69000
v -1.09161 0.14000 -1.63000
v -1.09161 0.14000 -1.51000
v 1.17880 -0.06000 -1.00500
v 1.59880 -0.06000 -1.00500
v 1.59880 0.42000 -1.00500
v 1.17880 0.42000 -1.00500
v 1.17880 -0.06000 0.24500
v 1.59880 -0.06000 0.24500
v 1.59880 0.42000 0.24500
v 1.17880 0.42000 0.24500
v 1.01920 -0.46000 -0.38000
v 1.22426 -0.46000 -0.46494
v 1.30920 -0.46000 -0.67000
v 1.22426 -0.46000 -0.87506
v 1.01920 -0.46000 -0.96000
v 0.81414 -0.46000 -0.87506
v 0.72920 -0.46000 -0.67000
v 0.81414 -0.46000 -0.46494
v 1.01920 -0.28000 -0.47000
v 1.16062 -0.28000 -0.52858
v 1.21920 -0.28000 -0.67000
v 1.16062 -0.28000 -0.81142
v 1.01920 -0.28000 -0.87000
v 0.87778 -0.28000 -0.81142
v 0.81920 -0.28000 -0.67000
v 0.87778 -0.28000 -0.52858
v 1.01920 -0.46000 0.95000
v 1.22426 -0.46000 0.86506
v 1.30920 -0.46000 0.66000
v 1.22426 -0.46000 0.45494
v 1.01920 -0.46000 0.37000
v 0.81414 -0.46000 0.45494
v 0.72920 -0.46000 0.66000
v 0.81414 -0.46000 0.86506
v 1.01920 -0.28000 0.86000
v 1.16062 -0.28000 0.80142
v 1.21920 -0.28000 0.66000
v 1.16062 -0.28000 0.51858
v 1.01920 -0.28000 0.46000
v 0.87778 -0.28000 0.51858
v 0.81920 -0.28000 0.66000
v 0.87778 -0.28000 0.80142
v 0.67840 -0.05000 -1.53000
v 1.15840 -0.05000 -1.53000
v 1.15840 0.37000 -1.53000
v 0.67840 0.37000 -1.53000
v 0.67840 -0.05000 -1.11000
v 1.15840 -0.05000 -1.11000
v 1.15840 0.37000 -1.11000
v 0.67840 0.37000 -1.11000
v 0.91840 0.31000 -1.57000
v 0.91840 -0.03000 -1.57000
v 0.91840 0.14000 -1.45000
v 1.09161 0.14000 -1.51000
v 1.09161 0.14000 -1.63000
v 0.91840 0.14000 -1.69000
v 0.74519 0.14000 -1.63000
v 0.74519 0.14000 -1.51000
v 0.00000 2.03000 0.05000
v 0.00000 0.93000 0.05000
v 0.00000 1.48000 0.55000
v 0.32328 1.48000 0.45451
v 0.52308 1.48000 0.20451
v 0.52308 1.48000 -0.10451
v 0.32328 1.48000 -0.35451
v 0.00000 1.48000 -0.45000
v -0.32328 1.48000 -0.35451
v -0.52308 1.48000 -0.10451
v -0.52308 1.48000 0.20451
v -0.32328 1.48000 0.45451
v 0.00000 1.73000 0.47000
v 0.00000 1.11000 0.47000
v 0.00000 1.42000 0.73000
v 0.24426 1.42000 0.66917
v 0.37423 1.42000 0.51515
v 0.32909 1.42000 0.34000
v 0.12997 1.42000 0.22568
v -0.12997 1.42000 0.22568
v -0.32909 1.42000 0.34000
v -0.37423 1.42000 0.51515
v -0.24426 1.42000 0.66917
v -0.55000 1.79000 0.02000
v -0.55000 1.19000 0.02000
v -0.55000 1.49000 0.15000
v -0.38029 1.49000 0.11192
v -0.31000 1.49000 0.02000
v -0.38029 1.49000 -0.07192
v -0.55000 1.49000 -0.11000
v -0.71971 1.49000 -0.07192
v -0.79000 1.49000 0.02000
v -0.71971 1.49000 0.11192
v -0.18000 1.63000 0.69000
v -0.18000 1.51000 0.69000
v -0.18000 1.57000 0.72500
v -0.13670 1.57000 0.70750
v -0.13670 1.57000 0.67250
v -0.18000 1.57000 0.65500
v -0.22330 1.57000 0.67250
v -0.22330 1.57000 0.70750
v 0.55000 1.79000 0.02000
v 0.55000 1.19000 0.02000
v 0.55000 1.49000 0.15000
v 0.71971 1.49000 0.11192
v 0.79000 1.49000 0.02000
v 0.71971 1.49000 -0.07192
v 0.55000 1.49000 -0.11000
v 0.38029 1.49000 -0.07192
v 0.31000 1.49000 0.02000
v 0.38029 1.49000 0.11192
v 0.18000 1.63000 0.69000
v 0.18000 1.51000 0.69000
v 0.18000 1.57000 0.72500
v 0.22330 1.57000 0.70750
v 0.22330 1.57000 0.67250
v 0.18000 1.57000 0.65500
v 0.13670 1.57000 0.67250
v 0.13670 1.57000 0.70750
v -1.80000 0.08000 -0.47000
v -1.32000 0.08000 -0.47000
v -1.32000 0.84000 -0.47000
v -1.80000 0.84000 -0.47000
v -1.80000 0.08000 0.71000
v -1.32000 0.08000 0.71000
v -1.32000 0.84000 0.71000
v -1.80000 0.84000 0.71000
v -1.56000 0.64000 0.34000
v -1.36947 0.64000 0.23000
v -1.36947 0.64000 0.01000
v -1.56000 0.64000 -0.10000
v -1.75053 0.64000 0.01000
v -1.75053 0.64000 0.23000
v -1.56000 1.12000 0.16000
v -1.52536 1.12000 0.14000
v -1.52536 1.12000 0.10000
v -1.56000 1.12000 0.08000
v -1.59464 1.12000 0.10000
v -1.59464 1.12000 0.14000
v 1.32000 0.08000 -0.47000
v 1.80000 0.08000 -0.47000
v 1.80000 0.84000 -0.47000
v 1.32000 0.84000 -0.47000
v 1.32000 0.08000 0.71000
v 1.80000 0.08000 0.71000
v 1.80000 0.84000 0.71000
v 1.32000 0.84000 0.71000
v 1.56000 0.64000 0.34000
v 1.75053 0.64000 0.23000
v 1.75053 0.64000 0.01000
v 1.56000 0.64000 -0.10000
v 1.36947 0.64000 0.01000
v 1.36947 0.64000 0.23000
v 1.56000 1.12000 0.16000
v 1.59464 1.12000 0.14000
v 1.59464 1.12000 0.10000
v 1.56000 1.12000 0.08000
v 1.52536 1.12000 0.10000
v 1.52536 1.12000 0.14000
usemtl hull
f 12 11 10 9 8 7 6 5 4 3 2 1
f 13 14 15 16 17 18 19 20 21 22 23 24
f 1 2 14 13
f 2 3 15 14
f 3 4 16 15
f 4 5 17 16
f 5 6 18 17
f 6 7 19 18
f 7 8 20 19
f 8 9 21 20
f 9 10 22 21
f 10 11 23 22
f 11 12 24 23
f 12 1 13 24
usemtl orange_heavy
f 34 33 32 31 30 29 28 27 26 25
f 35 36 37 38 39 40 41 42 43 44
f 25 26 36 35
f 26 27 37 36
f 27 28 38 37
f 28 29 39 38
f 29 30 40 39
f 30 31 41 40
f 31 32 42 41
f 32 33 43 42
f 33 34 44 43
f 34 25 35 44
usemtl glass
f 54 53 52 51 50 49 48 47 46 45
f 55 56 57 58 59 60 61 62 63 64
f 45 46 56 55
f 46 47 57 56
f 47 48 58 57
f 48 49 59 58
f 49 50 60 59
f 50 51 61 60
f 51 52 62 61
f 52 53 63 62
f 53 54 64 63
f 54 45 55 64
usemtl bumper
f 65 66 67 68
f 69 72 71 70
f 65 69 70 66
f 66 70 71 67
f 67 71 72 68
f 69 65 68 72
usemtl orange_heavy
f 73 74 75 76
f 77 80 79 78
f 73 77 78 74
f 74 78 79 75
f 75 79 80 76
f 77 73 76 80
usemtl orange_glow
f 88 87 86 85 84 83 82 81
f 89 90 91 92 93 94 95 96
f 81 82 90 89
f 82 83 91 90
f 83 84 92 91
f 84 85 93 92
f 85 86 94 93
f 86 87 95 94
f 87 88 96 95
f 88 81 89 96
usemtl orange_glow
f 104 103 102 101 100 99 98 97
f 105 106 107 108 109 110 111 112
f 97 98 106 105
f 98 99 107 106
f 99 100 108 107
f 100 101 109 108
f 101 102 110 109
f 102 103 111 110
f 103 104 112 111
f 104 97 105 112
usemtl engine
f 113 114 115 116
f 117 120 119 118
f 113 117 118 114
f 114 118 119 115
f 115 119 120 116
f 117 113 116 120
usemtl orange_glow
f 121 123 124
f 122 124 123
f 121 124 125
f 122 125 124
f 121 125 126
f 122 126 125
f 121 126 127
f 122 127 126
f 121 127 128
f 122 128 127
f 121 128 123
f 122 123 128
usemtl orange_heavy
f 129 130 131 132
f 133 136 135 134
f 129 133 134 130
f 130 134 135 131
f 131 135 136 132
f 133 129 132 136
usemtl orange_glow
f 144 143 142 141 140 139 138 137
f 145 146 147 148 149 150 151 152
f 137 138 146 145
f 138 139 147 146
f 139 140 148 147
f 140 141 149 148
f 141 142 150 149
f 142 143 151 150
f 143 144 152 151
f 144 137 145 152
usemtl orange_glow
f 160 159 158 157 156 155 154 153
f 161 162 163 164 165 166 167 168
f 153 154 162 161
f 154 155 163 162
f 155 156 164 163
f 156 157 165 164
f 157 158 166 165
f 158 159 167 166
f 159 160 168 167
f 160 153 161 168
usemtl engine
f 169 170 171 172
f 173 176 175 174
f 169 173 174 170
f 170 174 175 171
f 171 175 176 172
f 173 169 172 176
usemtl orange_glow
f 177 179 180
f 178 180 179
f 177 180 181
f 178 181 180
f 177 181 182
f 178 182 181
f 177 182 183
f 178 183 182
f 177 183 184
f 178 184 183
f 177 184 179
f 178 179 184
usemtl monkey_fur
f 185 187 188
f 186 188 187
f 185 188 189
f 186 189 188
f 185 189 190
f 186 190 189
f 185 190 191
f 186 191 190
f 185 191 192
f 186 192 191
f 185 192 193
f 186 193 192
f 185 193 194
f 186 194 193
f 185 194 195
f 186 195 194
f 185 195 196
f 186 196 195
f 185 196 187
f 186 187 196
usemtl monkey_face
f 197 199 200
f 198 200 199
f 197 200 201
f 198 201 200
f 197 201 202
f 198 202 201
f 197 202 203
f 198 203 202
f 197 203 204
f 198 204 203
f 197 204 205
f 198 205 204
f 197 205 206
f 198 206 205
f 197 206 207
f 198 207 206
f 197 207 199
f 198 199 207
usemtl monkey_fur
f 208 210 211
f 209 211 210
f 208 211 212
f 209 212 211
f 208 212 213
f 209 213 212
f 208 213 214
f 209 214 213
f 208 214 215
f 209 215 214
f 208 215 216
f 209 216 215
f 208 216 217
f 209 217 216
f 208 217 210
f 209 210 217
usemtl eye
f 218 220 221
f 219 221 220
f 218 221 222
f 219 222 221
f 218 222 223
f 219 223 222
f 218 223 224
f 219 224 223
f 218 224 225
f 219 225 224
f 218 225 220
f 219 220 225
usemtl monkey_fur
f 226 228 229
f 227 229 228
f 226 229 230
f 227 230 229
f 226 230 231
f 227 231 230
f 226 231 232
f 227 232 231
f 226 232 233
f 227 233 232
f 226 233 234
f 227 234 233
f 226 234 235
f 227 235 234
f 226 235 228
f 227 228 235
usemtl eye
f 236 238 239
f 237 239 238
f 236 239 240
f 237 240 239
f 236 240 241
f 237 241 240
f 236 241 242
f 237 242 241
f 236 242 243
f 237 243 242
f 236 243 238
f 237 238 243
usemtl orange_heavy
f 244 245 246 247
f 248 251 250 249
f 244 248 249 245
f 245 249 250 246
f 246 250 251 247
f 248 244 247 251
usemtl spike
f 257 256 255 254 253 252
f 258 259 260 261 262 263
f 252 253 259 258
f 253 254 260 259
f 254 255 261 260
f 255 256 262 261
f 256 257 263 262
f 257 252 258 263
usemtl orange_heavy
f 264 265 266 267
f 268 271 270 269
f 264 268 269 265
f 265 269 270 266
f 266 270 271 267
f 268 264 267 271
usemtl spike
f 277 276 275 274 273 272
f 278 279 280 281 282 283
f 272 273 279 278
f 273 274 280 279
f 274 275 281 280
f 275 276 282 281
f 276 277 283 282
f 277 272 278 283
